<?xml version="1.0" encoding="utf-8"?>
<!-- Generator: Adobe Illustrator 22.1.0, SVG Export Plug-In . SVG Version: 6.00 Build 0)  -->
<svg version="1.1" id="Layer_1" xmlns="http://www.w3.org/2000/svg" xmlns:xlink="http://www.w3.org/1999/xlink" x="0px" y="0px"
	 viewBox="0 0 40 41.9" style="enable-background:new 0 0 40 41.9;" xml:space="preserve">
<style type="text/css">
	.st0{fill:#FFFFFF;}
</style>
<g>
	<path class="st0" d="M30.7,2V1.6C30.7,0.7,29.9,0,29,0h-3.8c-0.9,0-1.6,0.7-1.6,1.6v0.3h-7.2V1.6c0-0.9-0.7-1.6-1.6-1.6h-3.8
		c-0.9,0-1.6,0.7-1.6,1.6V2C4.1,2.8,0,7.3,0,12.8v18.3c0,6,4.9,10.8,10.8,10.8h18.3c6,0,10.8-4.9,10.8-10.8V12.8
		C40,7.3,35.9,2.8,30.7,2z M9.3,5.3v0.2c0,0.9,0.7,1.6,1.6,1.6h3.8c0.9,0,1.6-0.7,1.6-1.6V5.1h7.2v0.3c0,0.9,0.7,1.6,1.6,1.6H29
		c0.9,0,1.6-0.7,1.6-1.6V5.3c3,0.6,5.3,2.9,6,5.9H3.4C4,8.2,6.4,5.9,9.3,5.3z M36.8,31.1c0,4.2-3.4,7.6-7.6,7.6H10.8
		c-4.2,0-7.6-3.4-7.6-7.6V14.4h33.6V31.1z"/>
	<path class="st0" d="M17.1,35.9C17.2,35.9,17.2,35.9,17.1,35.9c0.6,0,1.2-0.3,1.6-0.7l14.3-16l-3.2-2.8L17.2,30.6l-4.9-5.7
		l-3.2,2.8l6.5,7.5C16,35.6,16.5,35.9,17.1,35.9z"/>
</g>
</svg>
