<?xml version="1.0" encoding="utf-8"?>
<!-- Generator: Adobe Illustrator 22.1.0, SVG Export Plug-In . SVG Version: 6.00 Build 0)  -->
<svg version="1.1" id="Layer_1" xmlns="http://www.w3.org/2000/svg" xmlns:xlink="http://www.w3.org/1999/xlink" x="0px" y="0px"
	 viewBox="0 0 84.5 100.3" style="enable-background:new 0 0 84.5 100.3;" xml:space="preserve">
<style type="text/css">
	.st0{fill:#8C8C8C;}
</style>
<g>
	<polygon class="st0" points="23.5,6.4 32.2,16 41,6.4 41,64.6 49.8,64.6 49.8,62.2 43.4,62.2 43.4,0 32.2,12.3 21.1,0 21.1,28.8 
		23.5,28.8 	"/>
	<rect x="46.3" y="97.8" class="st0" width="17.7" height="2.4"/>
	<path class="st0" d="M69.4,64.6V41.3c0-4.4-3.5-7.9-7.9-7.9c-4.4,0-7.9,3.5-7.9,7.9v11.7H52l-1.5,2.4h3.2v9.1h2.4v-9.1H67v9.1H69.4
		z M56.1,53.1V41.3c0-3,2.4-5.4,5.4-5.4c3,0,5.4,2.4,5.4,5.4v11.7H56.1z"/>
	<path class="st0" d="M55.5,69.3c-6.8,0-12.4,5.5-12.4,12.4c0,6.8,5.5,12.4,12.4,12.4s12.4-5.5,12.4-12.4
		C67.9,74.9,62.3,69.3,55.5,69.3z M55.5,91.6c-5.5,0-9.9-4.4-9.9-9.9c0-5.5,4.4-9.9,9.9-9.9c5.5,0,9.9,4.4,9.9,9.9
		C65.4,87.2,61,91.6,55.5,91.6z"/>
	<path class="st0" d="M77.1,82.4L74.8,82c-2.5-0.4-4.4-2.6-4.4-5.3c0-3,2.4-5.4,5.4-5.4c2,0,3.7,1.1,4.6,2.6l2.1-1.2
		c-1.4-2.3-3.9-3.8-6.7-3.8c-4.3,0-7.8,3.5-7.8,7.8c0,3.8,2.8,7,6.4,7.7l0,0l2.3,0.4l0,0c3.1,0.5,5.4,3.2,5.4,6.4
		c0,3.6-2.9,6.5-6.5,6.5c-3.1,0-5.6-2.1-6.3-5l-2.4,0.6c1,3.9,4.5,6.8,8.7,6.8c5,0,9-4,9-9C84.5,86.9,81.3,83.2,77.1,82.4z"/>
	<path class="st0" d="M26.1,69.2V55.5H37v9.1h2.4V41.3c0-4.4-3.5-7.9-7.9-7.9c-4.4,0-7.9,3.5-7.9,7.9v11.7H22l-1.5,2.4h3.2v13.7H6
		V45.6h4.1c4.4,0,7.9,3.5,7.9,7.9s-3.5,7.9-7.9,7.9H8.3v2.4h1.8c5.7,0,10.3-4.6,10.3-10.3c0-3.9-2.1-7.2-5.3-9
		c1.5-1.1,2.6-2.9,2.6-4.9c0-3.4-2.7-6.1-6.1-6.1H3.5v9.7h-2L0,45.6h3.5v26.1h20.1v28.5h2.4c8.6,0,15.5-6.9,15.5-15.5
		S34.6,69.2,26.1,69.2z M26.1,41.3c0-3,2.4-5.4,5.4-5.4c3,0,5.4,2.4,5.4,5.4v11.7H26.1V41.3z M6,35.9h5.6c2,0,3.6,1.6,3.6,3.6
		s-1.6,3.6-3.6,3.6H6V35.9z M26.1,97.7V71.6c7.2,0,13,5.8,13,13C39.1,91.9,33.3,97.7,26.1,97.7z"/>
	<polygon class="st0" points="3.5,31.1 17.8,31.1 17.8,28.7 6,28.7 6,12.1 13.3,12.1 13.3,9.7 6,9.7 6,2.4 17.8,2.4 17.8,0 3.5,0 
		3.5,9.7 1.5,9.7 0,12.1 3.5,12.1 	"/>
	<polygon class="st0" points="79.9,64.4 82.3,64.4 82.3,0 46.4,0 46.4,2.4 79.9,2.4 	"/>
</g>
</svg>
