<?xml version="1.0" encoding="utf-8"?>
<!-- Generator: Adobe Illustrator 22.1.0, SVG Export Plug-In . SVG Version: 6.00 Build 0)  -->
<svg version="1.1" id="Layer_1" xmlns="http://www.w3.org/2000/svg" xmlns:xlink="http://www.w3.org/1999/xlink" x="0px" y="0px"
	 viewBox="0 0 28 28" style="enable-background:new 0 0 28 28;" xml:space="preserve">
<style type="text/css">
	.st0{fill:#8C8C8C;}
</style>
<path class="st0" d="M20.6,0H7.4C3.3,0,0,3.3,0,7.4v13.2C0,24.7,3.3,28,7.4,28h7.6V17.3h-3.7V13h3.7V9.9c0-3.6,2.2-5.6,5.5-5.6
	l3.3,0v4l-2.3,0c-1.8,0-2.1,0.8-2.1,2.1V13h4.2l0,4.3h-4.2V28h1.3c4.1,0,7.4-3.3,7.4-7.4V7.4C28,3.3,24.7,0,20.6,0z"/>
</svg>
