<?xml version="1.0" encoding="utf-8"?>
<!-- Generator: Adobe Illustrator 22.1.0, SVG Export Plug-In . SVG Version: 6.00 Build 0)  -->
<svg version="1.1" xmlns="http://www.w3.org/2000/svg" xmlns:xlink="http://www.w3.org/1999/xlink" x="0px" y="0px"
	 viewBox="0 0 345 389.3" style="enable-background:new 0 0 345 389.3;" xml:space="preserve">
<style type="text/css">
	.st0{fill:url(#);}
	.st1{fill:#939598;}
	.st2{fill:#231F20;}
	.st3{fill:#FFFFFF;}
	.st4{fill:none;}
	.st5{fill:#BC6931;}
	.st6{fill:none;stroke:#BC6931;stroke-miterlimit:10;}
	.st7{fill:#58595B;}
	.st8{opacity:0.4;fill:#FFFFFF;}
	.st9{fill:none;stroke:#FFFFFF;stroke-miterlimit:10;}
	.st10{opacity:0.69;clip-path:url(#SVGID_4_);fill:#613619;}
	.st11{fill:#FFD500;}
	.st12{fill:#1A1A1A;}
	.st13{fill:#8C8C8C;}
	.st14{fill-rule:evenodd;clip-rule:evenodd;fill:#8C8C8C;}
	.st15{fill:none;stroke:#939598;stroke-miterlimit:10;}
	.st16{opacity:0.5;fill:#BC6931;}
	.st17{clip-path:url(#SVGID_6_);}
	.st18{clip-path:url(#SVGID_8_);}
	.st19{opacity:0.8;fill:#231F20;}
	.st20{fill:#202020;}
	.st21{fill:none;stroke:#FFFFFF;stroke-width:3;stroke-miterlimit:10;}
	.st22{fill:#D1D3D4;}
</style>
<g id="Layer_1">
</g>
<g id="Layer_2">
	<g>
		<path class="st5" d="M67.5,243.3c-6.5,0-12.9,0.6-19,1.8c0.9,65.4,52.4,118.5,117.1,122c1.7-7.4,2.7-15.1,2.7-23
			C168.3,288.4,123.2,243.3,67.5,243.3z"/>
		<path class="st5" d="M175.2,167.1c4-3,7.9-6.4,11.6-10.2c19.3-20,28.8-46.2,28.5-72.4c0.3-26.2-9.2-52.4-28.5-72.4
			c-4.4-4.6-9.2-8.6-14.2-12.2c-5,3.5-9.8,7.6-14.2,12.2c-19.3,20-28.8,46.2-28.5,72.4c-0.2,16.7,3.6,33.4,11.5,48.6L175.2,167.1z"
			/>
		<path class="st5" d="M189.6,181.5l51.7,51.7c32.8-21.9,54.5-59.1,55.1-101.3c-6.2-1.2-12.5-1.8-19-1.8
			C239.7,130.2,206.9,150.9,189.6,181.5z"/>
		
			<rect x="150.5" y="-5.1" transform="matrix(0.7071 -0.7071 0.7071 0.7071 -102.8272 185.4766)" class="st5" width="44" height="443.8"/>
		<path class="st5" d="M156.3,253.1L49.5,146.4C56.8,201.9,100.7,245.8,156.3,253.1z"/>
		<path class="st5" d="M290.2,282.2c3.9-11.7,6-24.2,6.2-37.1c-6.2-1.2-12.5-1.8-19-1.8c-8.1,0-15.9,1-23.4,2.7L290.2,282.2z"/>
		<path class="st5" d="M176.7,344c0,7.9,0.9,15.6,2.7,23c25-1.4,47.9-10.1,66.8-24.1l-53.5-53.5C182.6,305.2,176.7,323.9,176.7,344z
			"/>
	</g>
</g>
</svg>
