<?xml version="1.0" encoding="utf-8"?>
<!-- Generator: Adobe Illustrator 22.1.0, SVG Export Plug-In . SVG Version: 6.00 Build 0)  -->
<svg version="1.1" id="Layer_1" xmlns="http://www.w3.org/2000/svg" xmlns:xlink="http://www.w3.org/1999/xlink" x="0px" y="0px"
	 viewBox="0 0 82.8 74" style="enable-background:new 0 0 82.8 74;" xml:space="preserve">
<g>
	<path d="M63.6,0c-6.8,0-12.8,3.6-16.2,8.9H14.8c-3.3,0-5.9,2.6-5.9,5.9v53.3c0,0.5,0.1,1,0.2,1.5l38.5-38.4c0.9,1.9,1.9,3.7,3,5.4
		l-4.9,4.9l28.2,28.2c0.1-0.5,0.2-1,0.2-1.5V41.2c0.4-0.8,0.9-1.5,1.4-2.2c3.5-5.8,7.5-12.4,7.5-19.8C82.9,8.6,74.2,0,63.6,0L63.6,0
		z M63.6,5.9c7.4,0,13.3,6,13.3,13.3c0,3.7-1.5,7.4-3.4,11c-0.8,1.5-1.7,3-2.6,4.5c-0.1,0.1-0.1,0.2-0.2,0.3
		c-0.1,0.1-0.1,0.2-0.2,0.3c-0.8,1.3-1.5,2.5-2.2,3.8c-0.6,1.1-1.3,2.2-1.8,3.3c-0.3,0.7-0.6,1.4-0.9,2.1c-0.1,0.2-0.1,0.4-0.2,0.5
		c-0.2,0.6-0.3,1.1-0.5,1.6c0,0.2-0.1,0.4-0.1,0.6c-0.1,0.7-0.2,1.4-0.2,2.1c0,0.5-0.5,0.9-1,0.9c-0.5,0-0.9-0.4-0.9-0.9
		c0-0.6-0.1-1.2-0.2-1.9c0-0.2-0.1-0.4-0.2-0.6c-0.1-0.4-0.2-0.8-0.3-1.2c-0.1-0.3-0.2-0.6-0.3-0.9c-0.1-0.4-0.3-0.7-0.4-1.1
		c-0.1-0.3-0.2-0.6-0.4-0.9c-0.1-0.2-0.2-0.5-0.3-0.7c-0.4-0.8-0.8-1.5-1.3-2.3c-0.5-0.8-0.9-1.6-1.4-2.4c-0.8-1.3-1.6-2.7-2.4-4.1
		c-1.3-2.2-2.5-4.4-3.5-6.6c0,0,0,0,0,0c-0.3-0.6-0.5-1.2-0.7-1.8c0,0,0,0,0,0c-0.2-0.6-0.4-1.2-0.5-1.8c-0.1-0.2-0.1-0.5-0.1-0.7
		c-0.1-0.4-0.2-0.8-0.2-1.2c-0.1-0.6-0.1-1.3-0.1-1.9c0-0.8,0.1-1.6,0.2-2.4c0-0.1,0-0.3,0.1-0.4c0.1-0.7,0.4-1.3,0.6-2
		c0.1-0.3,0.2-0.5,0.3-0.8c0.2-0.4,0.4-0.9,0.7-1.3c0.3-0.4,0.6-0.8,0.9-1.2c0.1-0.1,0.2-0.3,0.3-0.4c0.6-0.7,1.2-1.3,1.8-1.8
		c0,0,0,0,0.1,0C57.6,7.1,60.5,5.9,63.6,5.9L63.6,5.9z M26.8,14.8c3.1,0,6,1.2,8.1,3.1l-3.4,3.4c-1.3-1.1-2.9-1.8-4.7-1.8
		c-4,0-7.3,3.3-7.3,7.3c0,4,3.3,7.3,7.3,7.3c3.4,0,5.7-2,6.6-4.8h-6.6v-4.6l11.4,0C39.2,29.5,37,39,26.8,39
		c-6.7,0-12.1-5.4-12.1-12.1C14.8,20.2,20.2,14.8,26.8,14.8L26.8,14.8z M63.6,14.8c-2.5,0-4.4,2-4.4,4.4c0,2.5,2,4.4,4.4,4.4
		c2.5,0,4.4-2,4.4-4.4C68,16.8,66.1,14.8,63.6,14.8L63.6,14.8z M41.4,45.6L13.2,73.8c0.5,0.1,1,0.2,1.5,0.2H68c0.5,0,1-0.1,1.5-0.2
		L41.4,45.6z M41.4,45.6"/>
</g>
</svg>
