<?xml version="1.0" encoding="utf-8"?>
<!-- Generator: Adobe Illustrator 22.1.0, SVG Export Plug-In . SVG Version: 6.00 Build 0)  -->
<svg version="1.1" xmlns="http://www.w3.org/2000/svg" xmlns:xlink="http://www.w3.org/1999/xlink" x="0px" y="0px"
	 viewBox="0 0 296.1 400" style="enable-background:new 0 0 296.1 400;" xml:space="preserve">
<style type="text/css">
	.st0{fill:url(#);}
	.st1{fill:#939598;}
	.st2{fill:#231F20;}
	.st3{fill:#FFFFFF;}
	.st4{fill:none;}
	.st5{fill:#BC6931;}
	.st6{fill:none;stroke:#BC6931;stroke-miterlimit:10;}
	.st7{fill:#58595B;}
	.st8{opacity:0.4;fill:#FFFFFF;}
	.st9{fill:none;stroke:#FFFFFF;stroke-miterlimit:10;}
	.st10{opacity:0.69;clip-path:url(#SVGID_4_);fill:#613619;}
	.st11{fill:#FFD500;}
	.st12{fill:#1A1A1A;}
	.st13{fill:#8C8C8C;}
	.st14{fill-rule:evenodd;clip-rule:evenodd;fill:#8C8C8C;}
	.st15{fill:none;stroke:#939598;stroke-miterlimit:10;}
	.st16{opacity:0.5;fill:#BC6931;}
	.st17{clip-path:url(#SVGID_6_);}
	.st18{clip-path:url(#SVGID_8_);}
	.st19{opacity:0.8;fill:#231F20;}
	.st20{fill:#202020;}
	.st21{fill:none;stroke:#FFFFFF;stroke-width:3;stroke-miterlimit:10;}
	.st22{fill:#D1D3D4;}
</style>
<g id="Layer_1">
</g>
<g id="Layer_2">
	<path class="st5" d="M80.9,394c0,0-80.9-29.6-80.9-116.8c0-121,157.8-138.5,157.8-240.7c0-20.6-10.6-36.6-10.6-36.6
		s96.7,51.2,96.7,147.9s-45.6,128.8-45.6,128.8s63-13,60.3-73.9c0,0,37.5,27.2,37.5,85.8c0,87.5-77.1,111.4-77.1,111.4
		s20.1-33.1-8.7-56c-1.1,18.5-34.5,38.4-44.8,43.3c0,0,8.7-15.6,8.7-37.7c0-37.8-33.4-53.7-33.4-97.3c0-23.1,12.6-39.5,12.6-39.5
		s-77.2,24.4-77.2,130.7C76.1,366.9,80.9,394,80.9,394z"/>
</g>
</svg>
