<?xml version="1.0" encoding="utf-8"?>
<!-- Generator: Adobe Illustrator 22.1.0, SVG Export Plug-In . SVG Version: 6.00 Build 0)  -->
<svg version="1.1" id="Layer_1" xmlns="http://www.w3.org/2000/svg" xmlns:xlink="http://www.w3.org/1999/xlink" x="0px" y="0px"
	 viewBox="0 0 28 28" style="enable-background:new 0 0 28 28;" xml:space="preserve">
<style type="text/css">
	.st0{fill:#8C8C8C;}
</style>
<g>
	<path class="st0" d="M19.5,0H8.5C3.8,0,0,3.8,0,8.5v11.1C0,24.2,3.8,28,8.5,28h11.1c4.7,0,8.5-3.8,8.5-8.5V8.5
		C28,3.8,24.2,0,19.5,0z M25.5,19.5c0,3.3-2.7,6-6,6H8.5c-3.3,0-6-2.7-6-6V8.5c0-3.3,2.7-6,6-6h11.1c3.3,0,6,2.7,6,6V19.5z"/>
	<path class="st0" d="M14,6.8c-4,0-7.2,3.2-7.2,7.2s3.2,7.2,7.2,7.2s7.2-3.2,7.2-7.2S18,6.8,14,6.8z M14,18.7
		c-2.6,0-4.7-2.1-4.7-4.7s2.1-4.7,4.7-4.7s4.7,2.1,4.7,4.7S16.6,18.7,14,18.7z"/>
	<circle class="st0" cx="21.4" cy="6.7" r="1.3"/>
</g>
</svg>
