<?xml version="1.0" encoding="utf-8"?>
<!-- Generator: Adobe Illustrator 22.1.0, SVG Export Plug-In . SVG Version: 6.00 Build 0)  -->
<svg version="1.1" id="Layer_1" xmlns="http://www.w3.org/2000/svg" xmlns:xlink="http://www.w3.org/1999/xlink" x="0px" y="0px"
	 viewBox="0 0 254.4 302" style="enable-background:new 0 0 254.4 302;" xml:space="preserve">
<style type="text/css">
	.st0{fill:#FFFFFF;}
</style>
<g>
	<polygon class="st0" points="70.8,19.3 97.1,48.1 123.4,19.3 123.4,194.6 150.1,194.6 150.1,187.3 130.7,187.3 130.7,0 97.1,37.2 
		63.4,0 63.4,86.8 70.8,86.8 	"/>
	<rect x="139.5" y="294.6" class="st0" width="53.3" height="7.4"/>
	<path class="st0" d="M209.1,194.6v-70.1c0-13.1-10.6-23.7-23.7-23.7c-13.1,0-23.7,10.6-23.7,23.7v35.4h-4.9l-4.6,7.4h9.5v27.4h7.4
		v-27.4h32.8v27.4H209.1z M169,159.9v-35.4c0-9,7.3-16.4,16.4-16.4c9,0,16.4,7.3,16.4,16.4v35.4H169z"/>
	<path class="st0" d="M167.2,208.9c-20.6,0-37.3,16.7-37.3,37.3s16.7,37.3,37.3,37.3s37.3-16.7,37.3-37.3S187.7,208.9,167.2,208.9z
		 M167.2,276c-16.5,0-29.9-13.4-29.9-29.9c0-16.5,13.4-29.9,29.9-29.9c16.5,0,29.9,13.4,29.9,29.9C197.1,262.6,183.7,276,167.2,276z
		"/>
	<path class="st0" d="M232.2,248.3l-7-1.3c-7.6-1.3-13.3-7.9-13.3-15.9c0-8.9,7.2-16.2,16.2-16.2c5.9,0,11.1,3.2,13.9,8l6.3-3.7
		c-4.1-6.9-11.6-11.6-20.2-11.6c-13,0-23.5,10.5-23.5,23.5c0,11.6,8.4,21.2,19.4,23.1l0,0l7,1.3l0,0c9.2,1.6,16.2,9.7,16.2,19.3
		c0,10.9-8.8,19.7-19.7,19.7c-9.2,0-17-6.4-19.1-15l-7.1,1.7c2.9,11.8,13.5,20.6,26.2,20.6c14.9,0,27-12.1,27-27
		C254.4,261.6,244.8,250.6,232.2,248.3z"/>
	<path class="st0" d="M78.6,208.4v-41.2h32.8v27.4h7.4v-70.1c0-13.1-10.6-23.7-23.7-23.7c-13.1,0-23.7,10.6-23.7,23.7v35.4h-4.9
		l-4.6,7.4h9.5v41.2H18v-71.2h12.3c13.1,0,23.8,10.6,23.8,23.8c0,13.1-10.6,23.8-23.8,23.8h-5.3v7.4h5.3c17.2,0,31.1-13.9,31.1-31.1
		c0-11.7-6.4-21.8-15.9-27.1c4.7-3.3,7.7-8.7,7.7-14.9c0-10.1-8.2-18.3-18.3-18.3H10.7v29.2H4.6L0,137.2h10.7v78.6h60.6v85.9h7.4
		c25.8,0,46.6-20.9,46.6-46.6S104.4,208.4,78.6,208.4z M78.6,124.5c0-9,7.3-16.4,16.4-16.4c9,0,16.4,7.3,16.4,16.4v35.4H78.6V124.5z
		 M18,108h17c6,0,10.9,4.9,10.9,10.9c0,6-4.9,10.9-10.9,10.9H18V108z M78.6,294.4v-78.6c21.7,0,39.3,17.6,39.3,39.3
		S100.3,294.4,78.6,294.4z"/>
	<polygon class="st0" points="10.7,93.7 53.7,93.7 53.7,86.3 18,86.3 18,36.5 40,36.5 40,29.2 18,29.2 18,7.4 53.7,7.4 53.7,0 
		10.7,0 10.7,29.2 4.6,29.2 0,36.5 10.7,36.5 	"/>
	<polygon class="st0" points="240.5,193.9 247.9,193.9 247.9,0 139.7,0 139.7,7.4 240.5,7.4 	"/>
</g>
</svg>
