<?xml version="1.0" encoding="utf-8"?>
<!-- Generator: Adobe Illustrator 22.1.0, SVG Export Plug-In . SVG Version: 6.00 Build 0)  -->
<svg version="1.1" id="Layer_1" xmlns="http://www.w3.org/2000/svg" xmlns:xlink="http://www.w3.org/1999/xlink" x="0px" y="0px"
	 viewBox="0 0 120 120" style="enable-background:new 0 0 120 120;" xml:space="preserve">
<style type="text/css">
	.st0{fill:#FFFFFF;}
</style>
<rect x="0.1" y="0" width="120" height="120"/>
<g>
	<polygon class="st0" points="45,24.8 52.1,32.5 59.1,24.8 59.1,71.6 66.2,71.6 66.2,69.6 61,69.6 61,19.7 52.1,29.6 43.1,19.7 
		43.1,42.9 45,42.9 	"/>
	<rect x="63.4" y="98.3" class="st0" width="14.2" height="2"/>
	<path class="st0" d="M81.9,71.6V52.9c0-3.5-2.8-6.3-6.3-6.3c-3.5,0-6.3,2.8-6.3,6.3v9.4H68l-1.2,2h2.5v7.3h2v-7.3H80v7.3H81.9z
		 M71.2,62.3v-9.4c0-2.4,2-4.4,4.4-4.4c2.4,0,4.4,2,4.4,4.4v9.4H71.2z"/>
	<path class="st0" d="M70.7,75.4c-5.5,0-9.9,4.4-9.9,9.9c0,5.5,4.4,9.9,9.9,9.9c5.5,0,9.9-4.4,9.9-9.9
		C80.7,79.9,76.2,75.4,70.7,75.4z M70.7,93.3c-4.4,0-8-3.6-8-8c0-4.4,3.6-8,8-8c4.4,0,8,3.6,8,8C78.7,89.7,75.2,93.3,70.7,93.3z"/>
	<path class="st0" d="M88.1,85.9l-1.9-0.3c-2-0.4-3.6-2.1-3.6-4.2c0-2.4,1.9-4.3,4.3-4.3c1.6,0,3,0.9,3.7,2.1l1.7-1
		c-1.1-1.8-3.1-3.1-5.4-3.1c-3.5,0-6.3,2.8-6.3,6.3c0,3.1,2.2,5.7,5.2,6.2l0,0l1.9,0.3l0,0c2.5,0.4,4.3,2.6,4.3,5.2
		c0,2.9-2.3,5.2-5.2,5.2c-2.5,0-4.5-1.7-5.1-4l-1.9,0.5c0.8,3.2,3.6,5.5,7,5.5c4,0,7.2-3.2,7.2-7.2C94,89.5,91.5,86.5,88.1,85.9z"/>
	<path class="st0" d="M47.1,75.3v-11h8.7v7.3h2V52.9c0-3.5-2.8-6.3-6.3-6.3c-3.5,0-6.3,2.8-6.3,6.3v9.4h-1.3l-1.2,2h2.5v11H31v-19
		h3.3c3.5,0,6.3,2.8,6.3,6.3c0,3.5-2.8,6.3-6.3,6.3h-1.4v2h1.4c4.6,0,8.3-3.7,8.3-8.3c0-3.1-1.7-5.8-4.2-7.2c1.2-0.9,2.1-2.3,2.1-4
		c0-2.7-2.2-4.9-4.9-4.9H29v7.8h-1.6l-1.2,2H29v21h16.2v22.9h2c6.9,0,12.4-5.6,12.4-12.4C59.6,80.9,54,75.3,47.1,75.3z M47.1,52.9
		c0-2.4,2-4.4,4.4-4.4c2.4,0,4.4,2,4.4,4.4v9.4h-8.7V52.9z M31,48.5h4.5c1.6,0,2.9,1.3,2.9,2.9c0,1.6-1.3,2.9-2.9,2.9H31V48.5z
		 M47.1,98.2v-21c5.8,0,10.5,4.7,10.5,10.5C57.6,93.5,52.9,98.2,47.1,98.2z"/>
	<polygon class="st0" points="29,44.7 40.5,44.7 40.5,42.7 31,42.7 31,29.4 36.8,29.4 36.8,27.5 31,27.5 31,21.7 40.5,21.7 
		40.5,19.7 29,19.7 29,27.5 27.4,27.5 26.2,29.4 29,29.4 	"/>
	<polygon class="st0" points="90.3,71.4 92.3,71.4 92.3,19.7 63.4,19.7 63.4,21.7 90.3,21.7 	"/>
</g>
</svg>
