<?xml version="1.0" encoding="utf-8"?>
<!-- Generator: Adobe Illustrator 22.1.0, SVG Export Plug-In . SVG Version: 6.00 Build 0)  -->
<svg version="1.1" id="Layer_1" xmlns="http://www.w3.org/2000/svg" xmlns:xlink="http://www.w3.org/1999/xlink" x="0px" y="0px"
	 viewBox="0 0 128 140" style="enable-background:new 0 0 128 140;" xml:space="preserve">
<style type="text/css">
	.st0{fill:#8C8C8C;}
</style>
<g>
	<polygon class="st0" points="46.3,27.2 55,36.8 63.7,27.2 63.7,85.4 72.6,85.4 72.6,83 66.2,83 66.2,20.8 55,33.2 43.8,20.8 
		43.8,49.7 46.3,49.7 	"/>
	<rect x="69.1" y="118.7" class="st0" width="17.7" height="2.4"/>
	<path class="st0" d="M92.2,85.4V62.2c0-4.4-3.5-7.9-7.9-7.9c-4.4,0-7.9,3.5-7.9,7.9v11.7h-1.6l-1.5,2.4h3.2v9.1h2.4v-9.1h10.9v9.1
		H92.2z M78.9,73.9V62.2c0-3,2.4-5.4,5.4-5.4c3,0,5.4,2.4,5.4,5.4v11.7H78.9z"/>
	<path class="st0" d="M78.3,90.2c-6.8,0-12.4,5.5-12.4,12.4c0,6.8,5.5,12.4,12.4,12.4s12.4-5.5,12.4-12.4
		C90.6,95.7,85.1,90.2,78.3,90.2z M78.3,112.5c-5.5,0-9.9-4.4-9.9-9.9c0-5.5,4.4-9.9,9.9-9.9c5.5,0,9.9,4.4,9.9,9.9
		C88.2,108,83.7,112.5,78.3,112.5z"/>
	<path class="st0" d="M99.9,103.3l-2.3-0.4c-2.5-0.4-4.4-2.6-4.4-5.3c0-3,2.4-5.4,5.4-5.4c2,0,3.7,1.1,4.6,2.6l2.1-1.2
		c-1.4-2.3-3.9-3.8-6.7-3.8c-4.3,0-7.8,3.5-7.8,7.8c0,3.8,2.8,7,6.4,7.7l0,0l2.3,0.4l0,0c3.1,0.5,5.4,3.2,5.4,6.4
		c0,3.6-2.9,6.5-6.5,6.5c-3.1,0-5.6-2.1-6.3-5l-2.4,0.6c1,3.9,4.5,6.8,8.7,6.8c5,0,9-4,9-9C107.2,107.7,104.1,104,99.9,103.3z"/>
	<path class="st0" d="M48.9,90V76.3h10.9v9.1h2.4V62.2c0-4.4-3.5-7.9-7.9-7.9c-4.4,0-7.9,3.5-7.9,7.9v11.7h-1.6l-1.5,2.4h3.2V90
		H28.8V66.4h4.1c4.4,0,7.9,3.5,7.9,7.9c0,4.4-3.5,7.9-7.9,7.9h-1.8v2.4h1.8c5.7,0,10.3-4.6,10.3-10.3c0-3.9-2.1-7.2-5.3-9
		c1.5-1.1,2.6-2.9,2.6-4.9c0-3.4-2.7-6.1-6.1-6.1h-8.1v9.7h-2l-1.5,2.4h3.5v26.1h20.1V121h2.4c8.6,0,15.5-6.9,15.5-15.5
		S57.4,90,48.9,90z M48.9,62.2c0-3,2.4-5.4,5.4-5.4c3,0,5.4,2.4,5.4,5.4v11.7H48.9V62.2z M28.8,56.7h5.6c2,0,3.6,1.6,3.6,3.6
		s-1.6,3.6-3.6,3.6h-5.6V56.7z M48.9,118.6V92.5c7.2,0,13,5.8,13,13S56.1,118.6,48.9,118.6z"/>
	<polygon class="st0" points="26.3,51.9 40.6,51.9 40.6,49.5 28.8,49.5 28.8,33 36,33 36,30.5 28.8,30.5 28.8,23.3 40.6,23.3 
		40.6,20.8 26.3,20.8 26.3,30.5 24.3,30.5 22.8,33 26.3,33 	"/>
	<polygon class="st0" points="102.6,85.2 105.1,85.2 105.1,20.8 69.2,20.8 69.2,23.3 102.6,23.3 	"/>
</g>
</svg>
