<?xml version="1.0" encoding="utf-8"?>
<!-- Generator: Adobe Illustrator 22.1.0, SVG Export Plug-In . SVG Version: 6.00 Build 0)  -->
<svg version="1.1" id="Layer_1" xmlns="http://www.w3.org/2000/svg" xmlns:xlink="http://www.w3.org/1999/xlink" x="0px" y="0px"
	 viewBox="0 0 944 213" style="enable-background:new 0 0 944 213;" xml:space="preserve">
<style type="text/css">
	.st0{fill:#FFFFFF;}
</style>
<g>
	<path class="st0" d="M539.4,31.5c-21.2,0-38.5,17.2-38.5,38.5v53.2h-8l-7.5,11.9h15.5v44.4h11.9v-44.4h53.1v44.4h11.9V70
		C577.9,48.8,560.6,31.5,539.4,31.5z M512.8,123.3V70c0-14.7,11.9-26.5,26.5-26.5c14.7,0,26.5,11.9,26.5,26.5v53.2H512.8z"/>
	<path class="st0" d="M891.5,211.8c-23.5,0-43.8-15.7-49.8-38.2l11.8-2.9c4.7,17.1,20.2,29,38,29c21.7,0,39.4-17.7,39.4-39.4
		c0-19.1-13.7-35.5-32.5-38.8l-14.7-2.6l0,0C863,114.6,848,96.4,848,75.1c0-24.7,20.1-44.7,44.7-44.7c15.4,0,29.8,8,37.9,21
		l-10.4,6.2c-6-9.3-16.4-15.1-27.5-15.1c-18,0-32.6,14.6-32.6,32.6c0,15.8,11.3,29.3,26.9,32.1l13.6,2.4
		c24.6,4.4,42.4,25.7,42.4,50.7C943.1,188.7,920,211.8,891.5,211.8z"/>
	<polygon class="st0" points="446.9,31.4 435,31.4 435,179.6 486.8,179.6 486.8,167.6 446.9,167.6 	"/>
	<polygon class="st0" points="86.6,42.8 86.6,30.9 16.9,30.9 16.9,78.2 7,78.2 -0.5,90.1 16.9,90.1 16.9,211.8 86.6,211.8 
		86.6,199.9 28.8,199.9 28.8,90.1 64.4,90.1 64.4,78.2 28.8,78.2 28.8,42.8 	"/>
	<path class="st0" d="M352.8,135.2h53.1v44.4h11.9V70c0-21.2-17.2-38.5-38.5-38.5c-21.2,0-38.5,17.2-38.5,38.5v53.2h-8l-7.5,11.9
		h15.5v44.4h11.9V135.2z M352.8,70c0-14.7,11.9-26.5,26.5-26.5c14.7,0,26.5,11.9,26.5,26.5v53.2h-53.1V70z"/>
	<path class="st0" d="M593.4,31.3v0.3v148h11.9V44.1c37.6,5.7,66.4,38.2,66.4,77.5c0,43.3-35.1,78.4-78.4,78.4H248v-20.4h13.5h6.5
		c27.9,0,50.4-22.6,50.4-50.4c0-18.9-10.4-35.4-25.8-44c7.5-5.4,12.5-14.2,12.5-24.1c0-16.4-13.3-29.6-29.6-29.6h-39.4v47.3h-9.8
		l-7.5,11.9h17.3v77H211v-137l-54.6,60.3l-54.6-60.3v180.9h11.9V62l42.6,46.6L199,62v117.4v0.3h37v32.3h357.4
		c49.9,0,90.3-40.4,90.3-90.3C683.7,71.7,643.3,31.3,593.4,31.3z M248,43.3h27.5c9.8,0,17.7,7.9,17.7,17.7s-7.9,17.7-17.7,17.7H248
		V43.3z M248,90.6h20c21.3,0,38.5,17.2,38.5,38.5s-17.2,38.5-38.5,38.5h-6.5H248V90.6z"/>
	
		<rect x="760.1" y="150.4" transform="matrix(6.123234e-17 -1 1 6.123234e-17 560.1777 971.9301)" class="st0" width="11.9" height="111"/>
	<path class="st0" d="M766.1,33.5c-41.3,0-74.7,33.4-74.7,74.7c0,41.3,33.4,74.7,74.7,74.7c41.3,0,74.7-33.4,74.7-74.7
		C840.8,67,807.3,33.5,766.1,33.5z M766.1,171c-34.7,0-62.8-28.1-62.8-62.8s28.1-62.8,62.8-62.8c34.7,0,62.8,28.1,62.8,62.8
		S800.7,171,766.1,171z"/>
	<rect x="16.3" y="-0.7" class="st0" width="913.4" height="11.9"/>
</g>
</svg>
