<?xml version="1.0" encoding="utf-8"?>
<!-- Generator: Adobe Illustrator 22.1.0, SVG Export Plug-In . SVG Version: 6.00 Build 0)  -->
<svg version="1.1" id="Layer_1" xmlns="http://www.w3.org/2000/svg" xmlns:xlink="http://www.w3.org/1999/xlink" x="0px" y="0px"
	 viewBox="0 0 40 28" style="enable-background:new 0 0 40 28;" xml:space="preserve">
<style type="text/css">
	.st0{fill-rule:evenodd;clip-rule:evenodd;fill:#8C8C8C;}
</style>
<g>
	<path class="st0" d="M37.5,10.1c-0.1-0.1-0.1-0.2,0-0.3c0.3-1.1,0.9-2.2,1.5-3.2c0.1-0.1,0.2-0.3,0.3-0.4c0,0,0,0,0-0.1
		c-0.2,0-0.3,0-0.5,0c-1.9,0-3.8,0-5.7,0c-0.1,0-0.3,0-0.4-0.1c-1.6-1-3.3-1.8-5.1-2.3c-1-0.3-2.1-0.6-3.2-0.7
		c-1.5-0.2-3.7-0.5-6.4-0.3c-1.1,0.1-2.2,0.2-3.4,0.4c-1.1,0.2-2.3,0.5-3.4,0.9c-1.5,0.5-3,1.2-4.3,2.1c-0.1,0-0.2,0.1-0.3,0.1
		c-1.9,0-3.9,0-5.8,0c0,0-0.1,0-0.1,0v0.1c0.2,0.2,0.3,0.4,0.5,0.7c0.6,0.9,1.1,1.9,1.4,2.9c0,0.1,0,0.2,0,0.3
		c-0.7,1-1.2,2.1-1.5,3.3c-0.1,0.4-0.5,2.1-0.2,3.8c0.3,1.9,1.1,3.5,2.3,4.9C4.4,23.6,6,24.5,7.8,25c1.3,0.4,2.6,0.4,4,0.2
		c2.4-0.4,4.4-1.5,6-3.4c0,0,0,0,0,0c0,0,0,0,0.1,0c0.7,1,1.3,2,2,3c0.7-1,1.4-2.1,2.1-3.1c0.2,0.2,0.3,0.4,0.5,0.6
		c1.3,1.4,2.9,2.3,4.7,2.8c0.8,0.2,1.5,0.3,2.3,0.3c1.8,0,3.6-0.5,5.1-1.5c2.2-1.4,3.6-3.4,4.3-5.9C39.7,15.2,39.2,12.6,37.5,10.1z
		 M10.5,23.4c-4.3,0-7.7-3.4-7.8-7.6C2.6,11.5,6.2,8,10.4,8c4.3,0,7.7,3.4,7.7,7.7C18.1,19.9,14.7,23.4,10.5,23.4z M16.9,8.6
		C15.1,7,13.1,6.2,10.7,6c3.1-1.3,6.4-1.8,9.8-1.7c3,0.1,5.8,0.6,8.6,1.8c-2.3,0.2-4.3,1-6,2.6c-1.7,1.6-2.7,3.5-3.1,5.8
		C19.6,12.1,18.6,10.1,16.9,8.6z M29.6,23.5c-4.2,0-7.7-3.5-7.7-7.7c0-4.2,3.3-7.6,7.5-7.7c4.3-0.1,7.9,3.2,7.9,7.7
		C37.3,20.1,33.9,23.5,29.6,23.5z"/>
	<path class="st0" d="M29.6,10.9c-2.6,0-4.8,2.1-4.8,4.8c0,2.7,2.2,4.9,5,4.8c2.5-0.1,4.6-2.1,4.6-4.8C34.4,13,32.2,10.9,29.6,10.9z
		 M29.6,18.8c-1.7,0-3.1-1.4-3.1-3.1c0-1.7,1.4-3.1,3.1-3.1c1.7,0,3.1,1.4,3.1,3.1C32.7,17.4,31.3,18.8,29.6,18.8z"/>
	<path class="st0" d="M10.3,10.9c-2.5,0-4.8,2-4.8,4.8c0,2.7,2.2,4.9,5,4.8c2.4-0.1,4.5-2.1,4.5-4.8C15,13,12.9,10.9,10.3,10.9z
		 M10.3,18.8c-1.7,0-3.1-1.4-3.1-3.1c0-1.7,1.4-3.1,3.1-3.1c1.7,0,3.1,1.4,3.2,3.1C13.4,17.3,12,18.8,10.3,18.8z"/>
	<path class="st0" d="M29.6,14.1c-0.9,0-1.6,0.7-1.6,1.6c0,0.9,0.7,1.6,1.6,1.6c0.9,0,1.6-0.7,1.6-1.6
		C31.2,14.8,30.5,14.1,29.6,14.1z"/>
	<path class="st0" d="M10.3,14c-0.9,0-1.6,0.7-1.6,1.6c0,0.9,0.7,1.6,1.6,1.6c0.9,0,1.6-0.7,1.6-1.6C11.9,14.8,11.1,14,10.3,14z"/>
</g>
</svg>
